<svg width="249" height="48" viewBox="0 0 249 48" fill="none" xmlns="http://www.w3.org/2000/svg">
<g clip-path="url(#clip0_13422_81194)">
<path d="M81.2884 38.9527V34.7605H73.5522C73.336 34.7605 73.1574 34.6789 72.9976 34.5055C72.8378 34.3321 72.7626 34.1383 72.7626 33.9037V20.6131H76.4286V16.4209H72.7626V9.03613H68.8992V16.4209H65.0264V20.6131H68.8992V33.9037C68.8992 35.3011 69.3504 36.4945 70.2622 37.4737C71.1646 38.4529 72.2644 38.9527 73.5522 38.9527H81.2884Z" fill="black"/>
<path d="M100.013 16.4219H83.5439V20.6141H100.013C100.229 20.6141 100.408 20.6957 100.567 20.8691C100.718 21.0425 100.802 21.2363 100.802 21.4709V25.5917H83.5439V33.9047C83.5439 35.3021 83.9951 36.4955 84.9069 37.4747C85.8093 38.4539 86.9091 38.9537 88.1969 38.9537H104.666V21.4709C104.666 20.0735 104.215 18.8801 103.303 17.9009C102.391 16.9217 101.301 16.4219 100.013 16.4219ZM100.793 34.7615H88.1875C87.9713 34.7615 87.7833 34.6799 87.6329 34.5065C87.4731 34.3331 87.3979 34.1393 87.3979 33.9047V29.7839H100.784V34.7615H100.793Z" fill="black"/>
<path d="M127.574 37.4845C128.477 36.5053 128.937 35.3119 128.937 33.9145V21.4807C128.937 20.0833 128.486 18.8899 127.574 17.9107C126.662 16.9315 125.572 16.4317 124.284 16.4317H111.679V9.04688H107.815V38.9635H124.284C125.572 38.9635 126.672 38.4739 127.574 37.4845ZM111.914 34.5061C111.754 34.3327 111.679 34.1389 111.679 33.9043V21.4705C111.679 21.2359 111.754 21.0319 111.914 20.8687C112.074 20.6953 112.252 20.6137 112.468 20.6137H124.284C124.5 20.6137 124.679 20.6953 124.839 20.8687C124.989 21.0421 125.074 21.2359 125.074 21.4705V33.9043C125.074 34.1389 124.999 34.3429 124.839 34.5061C124.679 34.6795 124.5 34.7611 124.284 34.7611H112.468C112.252 34.7611 112.064 34.6795 111.914 34.5061Z" fill="black"/>
<path d="M151.459 37.4845C152.361 36.5053 152.822 35.3119 152.822 33.9145V21.4807C152.822 20.0833 152.371 18.8899 151.459 17.9107C150.547 16.9315 149.457 16.4317 148.169 16.4317H135.564V9.04688H131.7V38.9635H148.169C149.457 38.9635 150.557 38.4739 151.459 37.4845ZM135.789 34.5061C135.629 34.3327 135.554 34.1389 135.554 33.9043V21.4705C135.554 21.2359 135.629 21.0319 135.789 20.8687C135.949 20.6953 136.128 20.6137 136.344 20.6137H148.16C148.376 20.6137 148.554 20.6953 148.714 20.8687C148.865 21.0421 148.949 21.2359 148.949 21.4705V33.9043C148.949 34.1389 148.874 34.3429 148.714 34.5061C148.554 34.6795 148.376 34.7611 148.16 34.7611H136.344C136.128 34.7611 135.94 34.6795 135.789 34.5061Z" fill="black"/>
<path d="M159.364 16.4219H155.501V38.9537H159.364V16.4219Z" fill="black"/>
<path d="M182.61 17.9009C182.084 17.3297 181.511 16.9319 180.862 16.6973C180.383 16.5035 179.866 16.4219 179.32 16.4219H167.514C166.217 16.4219 165.126 16.9217 164.215 17.9009C163.312 18.8801 162.852 20.0735 162.852 21.4709V33.9047C162.852 35.3021 163.303 36.4955 164.215 37.4849C165.117 38.4641 166.217 38.9537 167.514 38.9537H179.32C180.608 38.9537 181.708 38.4641 182.61 37.4849C183.522 36.4955 183.973 35.3021 183.973 33.9047V21.4709C183.973 20.7263 183.851 20.0429 183.579 19.4207C183.362 18.8699 183.033 18.3599 182.601 17.9009H182.61ZM180.101 31.0589V33.9047C180.101 34.1393 180.025 34.3331 179.866 34.5065C179.715 34.6799 179.527 34.7615 179.311 34.7615H167.505C167.288 34.7615 167.1 34.6799 166.941 34.5065C166.79 34.3331 166.706 34.1393 166.706 33.9047V21.4709C166.706 21.2363 166.79 21.0323 166.941 20.8691C167.1 20.6957 167.288 20.6141 167.505 20.6141H179.311C179.527 20.6141 179.715 20.6957 179.866 20.8691C180.025 21.0323 180.101 21.2363 180.101 21.4709V31.0589Z" fill="black"/>
<path d="M159.364 9.04688H155.501V13.2391H159.364V9.04688Z" fill="black"/>
</g>
<defs>
<clipPath id="clip0_13422_81194">
<rect width="249" height="48" fill="white"/>
</clipPath>
</defs>
</svg>
