<svg width="154" height="34" viewBox="0 0 154 34" fill="none" xmlns="http://www.w3.org/2000/svg">
<path d="M37.4026 33.1589C35.7328 33.1589 34.3136 32.9085 33.1447 32.3241C31.9759 31.7397 31.0575 30.9883 30.3896 29.9864C29.7217 28.9846 29.4712 27.8992 29.4712 26.6469C29.4712 25.3946 29.8052 24.2257 30.3896 23.3074C30.974 22.389 31.9759 21.6376 33.3952 21.0532C34.731 20.4688 36.4842 20.2183 38.6549 20.2183H44.3321V23.8083H39.3228C37.9035 23.8083 36.9017 24.0588 36.3173 24.5597C35.7328 25.0606 35.4824 25.645 35.4824 26.3129C35.4824 26.9808 35.8163 27.7322 36.4007 28.2332C36.9852 28.7341 37.9035 28.9011 38.9889 28.9011C40.0742 28.9011 40.9926 28.6506 41.744 28.1497C42.5789 27.6487 43.1633 26.8974 43.4972 25.979L44.4156 28.8176C43.9982 30.2369 43.1633 31.2387 41.911 31.9901C40.6586 32.7415 39.1559 33.0755 37.3191 33.0755L37.4026 33.1589ZM43.9982 32.825V28.6506L43.5807 27.7322V20.2183C43.5807 18.8825 43.1633 17.8807 42.3284 17.1293C41.4935 16.3779 40.2412 16.0439 38.5714 16.0439C36.9017 16.0439 36.3173 16.2109 35.2319 16.5448C34.1466 16.8788 33.2282 17.3797 32.3933 17.9641L30.1391 13.6228C31.308 12.7879 32.7273 12.2035 34.397 11.7025C36.0668 11.2851 37.7366 11.0346 39.4063 11.0346C42.6623 11.0346 45.167 11.786 47.0037 13.3723C48.8404 14.8751 49.6753 17.2962 49.6753 20.5523V32.7415H43.8312L43.9982 32.825ZM52.5139 32.825V0.932598H58.692V15.71L58.2746 22.0551V28.4001C58.3581 28.4001 58.3581 32.7415 58.3581 32.7415H52.4304L52.5139 32.825ZM65.1206 33.1589C63.2004 33.1589 61.6141 32.7415 60.2783 31.9901C58.9425 31.1552 57.8572 29.9864 57.1893 28.3166C56.4379 26.6469 56.1039 24.6432 56.1039 22.1385C56.1039 19.6339 56.5213 17.5467 57.2727 15.9604C58.0241 14.3742 59.1095 13.1218 60.4453 12.3705C61.7811 11.5356 63.3674 11.2016 65.2041 11.2016C67.0408 11.2016 69.0445 11.6191 70.6308 12.5374C72.2171 13.4558 73.4694 14.7081 74.4713 16.3779C75.3896 18.0476 75.8905 19.9679 75.8905 22.222C75.8905 24.4762 75.3896 26.3964 74.4713 28.0662C73.5529 29.7359 72.2171 30.9883 70.6308 31.9066C69.0445 32.825 67.2078 33.2424 65.2041 33.2424L65.1206 33.1589ZM64.0353 28.0662C65.0371 28.0662 65.9555 27.8157 66.7904 27.3148C67.6252 26.8139 68.2097 26.146 68.7106 25.2276C69.2115 24.3092 69.462 23.3074 69.462 22.0551C69.462 20.8027 69.2115 19.7174 68.7106 18.8825C68.2097 18.0476 67.5418 17.2962 66.7904 16.8788C65.9555 16.3779 65.0371 16.1274 64.0353 16.1274C63.0334 16.1274 62.0315 16.3779 61.2802 16.8788C60.4453 17.3797 59.7774 18.0476 59.3599 18.8825C58.859 19.7174 58.6085 20.8027 58.6085 22.0551C58.6085 23.3074 58.859 24.3092 59.3599 25.2276C59.8609 26.146 60.5288 26.8139 61.2802 27.3148C62.115 27.8157 63.0334 28.0662 64.0353 28.0662ZM77.8943 32.825V0.932598H84.0724V15.71L83.6549 22.0551V28.4001C83.7384 28.4001 83.7384 32.7415 83.7384 32.7415H77.8108L77.8943 32.825ZM90.5009 33.1589C88.5807 33.1589 86.9944 32.7415 85.6586 31.9901C84.3228 31.1552 83.2375 29.9864 82.5696 28.3166C81.8182 26.6469 81.4842 24.6432 81.4842 22.1385C81.4842 19.6339 81.9017 17.5467 82.6531 15.9604C83.4045 14.3742 84.4898 13.1218 85.8256 12.3705C87.1614 11.5356 88.7477 11.2016 90.5844 11.2016C92.4212 11.2016 94.4249 11.6191 96.0112 12.5374C97.5974 13.4558 98.8497 14.7081 99.8516 16.3779C100.77 18.0476 101.271 19.9679 101.271 22.222C101.271 24.4762 100.77 26.3964 99.8516 28.0662C98.9332 29.7359 97.5974 30.9883 96.0112 31.9066C94.4249 32.825 92.5881 33.2424 90.5844 33.2424L90.5009 33.1589ZM89.4991 28.0662C90.5009 28.0662 91.4193 27.8157 92.2542 27.3148C93.0891 26.8139 93.6735 26.146 94.1744 25.2276C94.6753 24.3092 94.9258 23.3074 94.9258 22.0551C94.9258 20.8027 94.6753 19.7174 94.1744 18.8825C93.6735 18.0476 93.0056 17.2962 92.2542 16.8788C91.4193 16.3779 90.5009 16.1274 89.4991 16.1274C88.4972 16.1274 87.4954 16.3779 86.744 16.8788C85.9091 17.3797 85.2412 18.0476 84.8238 18.8825C84.3228 19.7174 84.0724 20.8027 84.0724 22.0551C84.0724 23.3074 84.3228 24.3092 84.8238 25.2276C85.3247 26.146 85.9091 26.8139 86.744 27.3148C87.5789 27.8157 88.4972 28.0662 89.4991 28.0662ZM106.364 8.44651C105.111 8.44651 104.026 8.11257 103.275 7.36117C102.44 6.60978 102.106 5.69141 102.106 4.60607C102.106 3.52073 102.523 2.60236 103.275 1.85096C104.109 1.09957 105.111 0.765625 106.364 0.765625C107.616 0.765625 108.701 1.09957 109.453 1.85096C110.288 2.51887 110.622 3.43724 110.622 4.52258C110.622 5.60793 110.204 6.60978 109.453 7.44466C108.701 8.19605 107.616 8.61349 106.28 8.61349L106.364 8.44651ZM103.275 32.825V11.4521H109.453V32.825H103.275ZM123.312 33.1589C121.058 33.1589 118.97 32.658 117.217 31.7397C115.464 30.8213 114.045 29.4855 113.043 27.8157C112.041 26.146 111.54 24.3092 111.54 22.1385C111.54 19.9679 112.041 18.0476 113.043 16.4614C114.045 14.7916 115.464 13.5393 117.217 12.5374C118.97 11.6191 120.974 11.1181 123.312 11.1181C125.649 11.1181 127.57 11.6191 129.323 12.5374C131.076 13.4558 132.495 14.7916 133.497 16.3779C134.499 18.0476 135 19.9679 135 22.1385C135 24.3092 134.499 26.146 133.497 27.8157C132.495 29.4855 131.076 30.8213 129.323 31.7397C127.57 32.658 125.566 33.1589 123.312 33.1589ZM123.312 28.0662C124.314 28.0662 125.315 27.8157 126.067 27.3148C126.902 26.8139 127.57 26.146 127.987 25.2276C128.488 24.3092 128.738 23.3074 128.738 22.0551C128.738 20.8027 128.488 19.7174 127.987 18.8825C127.486 18.0476 126.818 17.2962 126.067 16.8788C125.232 16.3779 124.314 16.1274 123.312 16.1274C122.31 16.1274 121.308 16.3779 120.557 16.8788C119.722 17.3797 119.054 18.0476 118.553 18.8825C118.052 19.7174 117.802 20.8027 117.802 22.0551C117.802 23.3074 118.052 24.3092 118.553 25.2276C119.054 26.146 119.722 26.8139 120.557 27.3148C121.391 27.8157 122.31 28.0662 123.312 28.0662ZM24.629 17.9641V11.786H0V17.9641H24.629ZM16.8646 26.6469V0.932598H10.6865V25.5615C10.6865 29.569 14.5269 32.825 19.2857 32.825H27.4675V26.6469H16.9481H16.8646ZM0.0834867 6.69327H5.84416V0.932598L0.0834867 6.69327Z" fill="black"/>
</svg>
