<svg width="13" height="12" viewBox="0 0 13 12" fill="none" xmlns="http://www.w3.org/2000/svg">
<g clip-path="url(#clip0_9809_15049)">
<path d="M11.1143 5.31454C11.0268 5.25701 10.92 5.22962 10.8106 5.20496C10.7394 5.18853 10.6683 5.17483 10.6026 5.1584C10.6026 5.14196 9.9486 4.98035 9.86924 4.95021C9.67496 4.87625 9.4834 4.78586 9.30006 4.68451C8.93611 4.48454 8.60227 4.23527 8.304 3.94491C7.95647 3.60524 7.66367 3.20805 7.43928 2.77524C7.32982 2.56706 7.21763 2.33696 7.15742 2.1096C7.10817 1.91786 7.05891 1.72611 7.00966 1.53436C6.96861 1.37548 6.94945 1.20839 6.86462 1.06595C6.71686 0.819414 6.44595 0.666016 6.15862 0.666016C5.85214 0.666016 5.56755 0.841328 5.42525 1.11251C5.3459 1.26865 5.32674 1.45492 5.28022 1.62202C5.18171 1.99182 5.08593 2.34244 4.91627 2.68759C4.73293 3.06287 4.49486 3.41349 4.21574 3.72577C3.64109 4.36949 2.88036 4.85708 2.04848 5.07348C1.87882 5.11731 1.70916 5.16114 1.5395 5.20496C1.39994 5.24058 1.28227 5.26523 1.16461 5.35562C0.959373 5.51176 0.833496 5.7583 0.833496 6.01579C0.833496 6.27328 0.94569 6.49789 1.13451 6.65403C1.3972 6.87317 1.74473 6.85674 2.05669 6.94439C2.25645 6.99918 2.45074 7.06766 2.63955 7.14984C3.01444 7.31145 3.36471 7.52238 3.68487 7.77439C4.32247 8.28115 4.81776 8.95775 5.11056 9.71652C5.24191 10.0589 5.31306 10.4096 5.38147 10.7684C5.44441 11.1053 5.83572 11.3327 6.15862 11.3327C6.42953 11.3327 6.71412 11.1848 6.85915 10.9519C6.94125 10.8204 6.95219 10.6177 6.98776 10.4671C7.04797 10.2151 7.09996 9.96853 7.193 9.72748C7.26688 9.53299 7.35445 9.34398 7.45296 9.16319C7.64998 8.80161 7.89626 8.47016 8.18086 8.17432C8.51744 7.82643 8.90875 7.53333 9.33837 7.30597C9.55182 7.19367 9.7762 7.09779 10.0033 7.01561C10.266 6.92248 10.5588 6.87591 10.8297 6.81291C11.0295 6.76634 11.1855 6.69786 11.3168 6.5335C11.4345 6.38832 11.5002 6.20205 11.5002 6.01579C11.5002 5.72816 11.3497 5.47067 11.1116 5.31454H11.1143ZM8.12339 6.3938H6.56088V7.95792C6.56088 8.17432 6.38575 8.34963 6.16957 8.34963C5.95339 8.34963 5.77825 8.17432 5.77825 7.95792V6.3938H4.21574C3.99956 6.3938 3.8217 6.21575 3.8217 5.99935C3.8217 5.78295 3.99956 5.6049 4.21574 5.6049H5.77825V4.04078C5.77825 3.82438 5.95339 3.64907 6.16957 3.64907C6.38575 3.64907 6.56088 3.82438 6.56088 4.04078V5.6049H8.12339C8.33957 5.6049 8.51744 5.78295 8.51744 5.99935C8.51744 6.21575 8.33957 6.3938 8.12339 6.3938Z" fill="url(#paint0_linear_9809_15049)"/>
</g>
<defs>
<linearGradient id="paint0_linear_9809_15049" x1="2.61127" y1="2.14701" x2="14.9081" y2="7.02151" gradientUnits="userSpaceOnUse">
<stop stop-color="#60BEE2"/>
<stop offset="1" stop-color="#5E4D84"/>
</linearGradient>
<clipPath id="clip0_9809_15049">
<rect width="12" height="12" fill="white" transform="translate(0.5)"/>
</clipPath>
</defs>
</svg>
