<svg width="80" height="99" viewBox="0 0 80 99" fill="none" xmlns="http://www.w3.org/2000/svg">
<path d="M79.5 98.6201L73.1125 11.4499L53.7547 7.62939e-05H0.499969L7.72829 98.6201H79.5Z" fill="white"/>
<path d="M73.1118 11.45L53.7539 0.00203419L60.8616 15.1687L73.1118 11.45Z" fill="#E5F2FF"/>
<path d="M30.5437 44.4344C30.7046 46.6344 29.0211 48.4185 26.7802 48.4185C24.5412 48.4185 22.5953 46.6344 22.4344 44.4344C22.2735 42.2344 23.957 40.4503 26.1979 40.4503C28.4369 40.4503 30.3828 42.2344 30.5437 44.4344Z" fill="#5272EA"/>
<path d="M56.8517 44.4344C57.0126 46.6344 55.329 48.4185 53.0881 48.4185C50.8491 48.4185 48.9032 46.6344 48.7423 44.4344C48.5814 42.2344 50.265 40.4503 52.5059 40.4503C54.7449 40.4503 56.6908 42.2344 56.8517 44.4344Z" fill="#5272EA"/>
<path d="M64.2731 70.2717C63.7904 70.2717 63.3844 69.9047 63.348 69.4248C62.8787 63.0187 52.6549 57.8075 40.556 57.8075C32.5405 57.8075 25.3448 60.1506 21.7746 63.9201C20.1869 65.5951 19.4533 67.4036 19.5912 69.2931C19.6276 69.7975 19.2445 70.2322 18.7332 70.2698C18.2199 70.3 17.7774 69.9273 17.7391 69.4248C17.5648 67.0442 18.4899 64.7106 20.4167 62.678C24.3258 58.549 32.0425 55.9839 40.556 55.9839C53.8271 55.9839 64.6523 61.8312 65.2001 69.2931C65.2365 69.7975 64.8515 70.2322 64.3401 70.2698C64.3171 70.2717 64.2961 70.2717 64.2731 70.2717Z" fill="#5272EA"/>
<path d="M15.6009 36.3625C15.3749 36.3625 15.1489 36.2816 14.9689 36.1198C14.5935 35.7754 14.5724 35.1995 14.921 34.8306L18.9872 30.5247C19.3377 30.154 19.9256 30.1352 20.2991 30.4758C20.6745 30.8183 20.6975 31.3961 20.3489 31.7649L16.2808 36.0708C16.0989 36.2647 15.8499 36.3625 15.6009 36.3625Z" fill="#5272EA"/>
<path d="M62.3666 36.3625C62.1406 36.3625 61.9127 36.2816 61.7326 36.1179L57.0344 31.812C56.6609 31.4676 56.6399 30.8917 56.9904 30.5228C57.339 30.154 57.925 30.1333 58.3004 30.4777L63.0006 34.7836C63.374 35.128 63.3951 35.7039 63.0446 36.0727C62.8627 36.2647 62.6156 36.3625 62.3666 36.3625Z" fill="#5272EA"/>
</svg>
