<svg width="33" height="33" viewBox="0 0 33 33" fill="none" xmlns="http://www.w3.org/2000/svg">
<path d="M25.5568 2.74128C28.4716 2.74128 30.8659 5.06304 30.8659 7.88953V25.4542C30.8659 28.2807 28.4716 30.6025 25.5568 30.6025H7.44318C4.52835 30.6025 2.13406 28.2807 2.13406 25.4542V7.88953C2.13406 5.06304 4.52835 2.74128 7.44318 2.74128H25.5568ZM25.5568 0.671875H7.44318C3.33119 0.671875 0 3.90215 0 7.88953V25.4542C0 29.4416 3.33119 32.6719 7.44318 32.6719H25.5568C29.6687 32.6719 33 29.4416 33 25.4542V7.88953C33 3.90215 29.6687 0.671875 25.5568 0.671875ZM22.3297 17.2776V13.8958H8.53629V17.2776H22.3297ZM18.0094 21.9716V8.04096H14.5221V21.4164C14.5221 23.5867 16.6561 25.3533 19.3627 25.3533H23.9432V21.9716H18.0094ZM8.58832 11.1198H11.8154V7.99049L8.58832 11.1198Z" fill="url(#paint0_linear_13918_100763)"/>
<defs>
<linearGradient id="paint0_linear_13918_100763" x1="2.13407" y1="2.79175" x2="29.9332" y2="31.4076" gradientUnits="userSpaceOnUse">
<stop stop-color="#5272EA"/>
<stop offset="1" stop-color="#394FC0"/>
</linearGradient>
</defs>
</svg>
